<svg width="48" height="48" viewBox="0 0 48 48" fill="none" xmlns="http://www.w3.org/2000/svg">
<circle cx="24" cy="24" r="23.5" fill="#FFF9D9" stroke="white"/>
<path d="M26.9944 22.5131C26.5021 21.8622 26.4482 20.6378 26.6029 19.8749C26.6871 19.4594 26.851 19.0111 27.266 18.8256C28.9945 18.0524 28.9152 22.2919 27.6428 22.7661C27.383 22.8635 27.1676 22.7421 26.9944 22.5131Z" fill="white"/>
<path d="M27.4622 23.118C27.2489 23.118 26.9861 23.0299 26.7404 22.7049C26.1414 21.9126 26.1434 20.5404 26.2907 19.8117C26.3396 19.567 26.4903 18.8242 27.1353 18.5354C27.6609 18.3005 28.0304 18.4468 28.2477 18.6113C28.8555 19.0713 28.9881 20.2316 28.8491 21.1766C28.7806 21.6474 28.5354 22.773 27.7534 23.0641C27.6603 23.0993 27.5617 23.1175 27.4622 23.118ZM27.2474 22.3213C27.3967 22.517 27.4838 22.4857 27.5307 22.4681C27.8381 22.3536 28.1151 21.7976 28.2193 21.0846C28.347 20.214 28.1939 19.3688 27.8635 19.1188C27.7877 19.0615 27.657 18.9989 27.3947 19.1188C27.1588 19.224 27.0061 19.4853 26.9141 19.9404C26.7614 20.6936 26.8446 21.7908 27.2474 22.3237V22.3213Z" fill="#FFDA22"/>
<path d="M27.6878 22.4553C27.541 21.6527 28.0431 20.535 28.5237 19.9228C28.7855 19.5895 29.1335 19.2631 29.5876 19.2836C31.4791 19.3698 29.5025 23.1214 28.1528 22.9731C27.8782 22.9427 27.7402 22.7382 27.6878 22.4553Z" fill="white"/>
<path d="M28.2369 23.2956C28.1974 23.2957 28.1578 23.2936 28.1185 23.2893C27.8895 23.2638 27.4882 23.1293 27.3751 22.5126C27.1965 21.5339 27.8156 20.3104 28.2741 19.7261C28.4283 19.5304 28.8976 18.9338 29.6023 18.9661C30.1778 18.992 30.4416 19.2891 30.562 19.5338C30.8982 20.2189 30.4949 21.3137 29.9458 22.0957C29.686 22.4662 29.0165 23.2956 28.2369 23.2956ZM28.001 22.3981C28.0456 22.6428 28.1386 22.6511 28.188 22.657C28.5144 22.6927 29.0111 22.3203 29.4251 21.7301C29.9307 21.0102 30.1734 20.1866 29.9909 19.8142C29.9488 19.729 29.8602 19.6145 29.5734 19.6013C29.3136 19.5891 29.061 19.754 28.7748 20.1191C28.3001 20.7235 27.8807 21.7414 28.001 22.3981Z" fill="#FFDA22"/>
<path d="M27.1539 23.004C26.1957 18.5081 22.6541 14.6748 17.7045 15.4676C14.7946 15.9335 12.5518 18.4528 11.8202 21.252C10.9848 24.4482 11.6293 28.0716 13.5863 30.746C15.3789 33.1929 18.1973 34.7178 21.1272 35.3408C23.8398 35.9153 26.088 36.0622 28.8134 35.147C34.7838 33.1406 34.084 28.3735 36.2764 25.4818C38.5765 22.4476 34.0106 20.9305 32.1167 20.8361C30.1288 20.7358 28.5349 21.669 27.1539 23.004Z" fill="white"/>
<path d="M24.9018 36.2652C23.6226 36.2652 22.3648 36.0772 21.0303 35.7934C17.729 35.0911 14.9517 33.3954 13.211 31.018C11.1996 28.2721 10.494 24.4848 11.37 21.1326C12.2058 17.9359 14.7222 15.4739 17.6306 15.0085C20.0843 14.617 22.3673 15.2698 24.2323 16.9019C25.7156 18.2002 26.8304 20.0388 27.4192 22.1382C28.9299 20.8658 30.4822 20.2884 32.1422 20.3706C33.3686 20.4318 36.3357 21.1624 37.1632 22.9379C37.4456 23.5437 37.586 24.5254 36.6489 25.7616C35.9946 26.6249 35.606 27.6893 35.1944 28.8163C34.2822 31.3141 33.2487 34.1461 28.9636 35.5874C27.6565 36.0362 26.2839 36.2652 24.9018 36.2652V36.2652ZM19.015 15.8257C18.6006 15.8263 18.1869 15.86 17.7779 15.9265C15.2272 16.3347 13.0138 18.5202 12.2694 21.3694C11.4624 24.4559 12.1109 27.9428 13.9607 30.4689C15.5669 32.6614 18.1459 34.2293 21.2236 34.8836C23.8369 35.4406 25.9936 35.603 28.6666 34.7065C32.5278 33.4091 33.439 30.9128 34.3204 28.4992C34.7564 27.3041 35.1685 26.1761 35.9075 25.2013C36.4423 24.4956 36.5774 23.8839 36.32 23.3323C35.7626 22.1294 33.4674 21.367 32.0962 21.2975C30.4685 21.2172 28.9999 21.8647 27.4769 23.3367C27.4172 23.3943 27.3432 23.4349 27.2625 23.4543C27.1818 23.4736 27.0974 23.4711 27.0181 23.4469C26.9387 23.4227 26.8672 23.3777 26.8111 23.3166C26.755 23.2555 26.7162 23.1805 26.6988 23.0994C25.9197 19.4413 23.2193 15.8257 19.015 15.8257Z" fill="#FFDA22"/>
<path d="M28.4097 21.9636C27.9704 22.2722 27.5568 22.6159 27.173 22.9913C27.0921 22.6125 26.9931 22.2386 26.876 21.8696C25.1367 32.4285 16.9117 31.6176 13.718 30.8806C15.376 33.0593 17.8205 34.4531 20.4661 35.1304C27.3702 33.1895 28.3955 25.9794 28.4097 21.9636Z" fill="#FFDA22"/>
<path d="M32.9316 20.9196C32.6697 20.8698 32.4049 20.8371 32.1388 20.8217C31.3481 20.7804 30.5577 20.9093 29.8211 21.1995C30.6007 23.1796 31.3871 31.1565 26.2486 35.463C28.2551 36.0013 32.8552 34.6311 34.5132 28.2486C34.5754 26.2485 34.132 23.8182 32.9316 20.9196Z" fill="#FFDA22"/>
<path d="M16.3117 22.5439C16.636 22.5439 16.8989 22.281 16.8989 21.9566C16.8989 21.6323 16.636 21.3694 16.3117 21.3694C15.9873 21.3694 15.7244 21.6323 15.7244 21.9566C15.7244 22.281 15.9873 22.5439 16.3117 22.5439Z" fill="#FFDA22"/>
<path d="M19.8352 21.9567C20.1596 21.9567 20.4225 21.6938 20.4225 21.3695C20.4225 21.0451 20.1596 20.7822 19.8352 20.7822C19.5109 20.7822 19.248 21.0451 19.248 21.3695C19.248 21.6938 19.5109 21.9567 19.8352 21.9567Z" fill="#FFDA22"/>
<path d="M17.0149 24.5999C17.2159 24.7988 17.4547 24.9554 17.7171 25.0607C17.9796 25.1659 18.2605 25.2175 18.5432 25.2126C18.8167 25.2049 19.086 25.1432 19.3355 25.0309C19.5851 24.9187 19.8099 24.7583 19.9972 24.5588C20.2117 24.329 20.3734 24.055 20.4709 23.7562C20.5423 23.5369 20.3872 23.2668 20.1631 23.2144C20.0506 23.186 19.9314 23.202 19.8305 23.2593C19.7295 23.3166 19.6546 23.4106 19.6213 23.5218C19.6066 23.5673 19.59 23.6113 19.5724 23.6554L19.6169 23.5502C19.5624 23.6755 19.4929 23.7938 19.4099 23.9025L19.4789 23.8134C19.3878 23.9309 19.282 24.0364 19.1643 24.1271L19.2533 24.0586C19.1398 24.1448 19.016 24.2166 18.8848 24.2725L18.99 24.2279C18.8665 24.2787 18.7371 24.3141 18.6049 24.3332L18.7223 24.317C18.579 24.3354 18.434 24.3354 18.2907 24.317L18.4082 24.3327C18.2586 24.3125 18.1122 24.2732 17.9726 24.2157L18.0778 24.2602C17.9448 24.2042 17.8194 24.1317 17.7044 24.0444L17.7935 24.1129C17.7392 24.0705 17.6874 24.0249 17.6384 23.9764C17.4754 23.813 17.1769 23.8007 17.0159 23.9764C16.9351 24.0599 16.89 24.1715 16.89 24.2876C16.89 24.4038 16.9351 24.5154 17.0159 24.5989L17.0149 24.5999Z" fill="#FFDA22"/>
<path d="M19.4467 16.8114C19.4788 16.511 19.4719 16.2076 19.4261 15.909C19.3831 15.5733 19.3312 15.2385 19.2681 14.9057C19.1573 14.3246 19.0139 13.7501 18.8384 13.1851C18.7405 12.8689 18.6549 12.5278 18.4356 12.2714C18.1479 11.9347 17.6409 11.9504 17.2641 12.1075C17.0751 12.181 16.9188 12.3199 16.8236 12.499C16.7304 12.6904 16.7057 12.9081 16.7536 13.1156C16.7918 13.2782 16.8739 13.4271 16.991 13.5462C17.0647 13.6222 17.1529 13.6824 17.2505 13.7233C17.3481 13.7641 17.4529 13.7848 17.5587 13.784C17.6645 13.7832 17.7691 13.761 17.866 13.7187C17.963 13.6764 18.0504 13.6149 18.1229 13.5379C18.2799 13.3725 18.3732 13.1568 18.3862 12.9291C18.3929 12.8174 18.3758 12.7055 18.3362 12.6009C18.2965 12.4962 18.2352 12.4011 18.1562 12.3218C17.9037 12.0713 17.4745 12.0365 17.2181 12.3027C17.1239 12.4004 17.0704 12.5302 17.0683 12.6658C17.0697 12.8011 17.1233 12.9305 17.2181 13.027C17.3146 13.123 17.445 13.1772 17.5812 13.1777C17.7173 13.1762 17.8475 13.1222 17.9448 13.027C17.9511 13.0196 17.9584 13.013 17.9663 13.0074L17.8626 13.0877L17.8748 13.0804L17.7534 13.1342C17.7617 13.1302 17.7704 13.1274 17.7794 13.1259L17.6428 13.144C17.6568 13.1423 17.671 13.1423 17.6849 13.144L17.5469 13.1249C17.5616 13.1278 17.576 13.1319 17.59 13.1371L17.4672 13.0852C17.4864 13.0942 17.5046 13.1052 17.5215 13.118L17.4172 13.0378C17.4295 13.0482 17.4409 13.0594 17.4515 13.0715L17.3712 12.9678C17.3864 12.9878 17.3989 13.0097 17.4084 13.0329L17.3595 12.91C17.3676 12.9324 17.3737 12.9555 17.3776 12.9791L17.3595 12.8425C17.3634 12.8758 17.3634 12.9095 17.3595 12.9428L17.3776 12.8063C17.3723 12.8398 17.3632 12.8726 17.3507 12.9042L17.3996 12.7823C17.384 12.8171 17.3645 12.8499 17.3414 12.8802L17.4216 12.776C17.4009 12.8016 17.3775 12.8249 17.3517 12.8455L17.4554 12.7652C17.4332 12.7812 17.4092 12.7947 17.384 12.8053L17.5088 12.7554C17.4875 12.7631 17.4655 12.7687 17.4432 12.772L17.5797 12.7539C17.5571 12.7564 17.5343 12.7564 17.5117 12.7539L17.6482 12.7725C17.6268 12.7687 17.6058 12.7627 17.5856 12.7544L17.7045 12.8048C17.685 12.7957 17.6663 12.7849 17.6487 12.7725L17.7534 12.8528C17.729 12.8341 17.707 12.8124 17.6879 12.7882L17.7681 12.8919C17.7462 12.8627 17.7278 12.831 17.7133 12.7975L17.7652 12.9203C17.7515 12.8859 17.7417 12.8502 17.7358 12.8136L17.7544 12.9502C17.75 12.9138 17.75 12.877 17.7544 12.8406L17.7373 12.9781C17.7414 12.9515 17.7483 12.9254 17.7578 12.9003L17.7045 13.0221C17.7152 12.9972 17.7288 12.9737 17.7451 12.9521L17.6644 13.0564C17.6834 13.0338 17.7047 13.0133 17.728 12.9952L17.6252 13.0759C17.6557 13.0542 17.6885 13.0359 17.7231 13.0216L17.6003 13.073C17.6769 13.0443 17.7568 13.0249 17.8381 13.0153L17.7016 13.0339C17.759 13.0256 17.8172 13.0246 17.8748 13.0309L17.7383 13.0128C17.7664 13.0179 17.794 13.0259 17.8205 13.0368L17.6977 12.9849C17.7178 12.9949 17.737 13.0067 17.7549 13.0202L17.6512 12.9394C17.6772 12.9609 17.7008 12.9852 17.7216 13.0118L17.6414 12.9081C17.6757 12.9566 17.7044 13.0088 17.727 13.0637L17.6751 12.9409C17.7485 13.1195 17.8029 13.3074 17.8596 13.4919C17.9203 13.6877 17.9771 13.8857 18.0299 14.086C18.136 14.485 18.2262 14.8878 18.3006 15.2943C18.3427 15.525 18.3795 15.7561 18.4112 15.9878L18.3896 15.8507C18.4322 16.1693 18.4591 16.4913 18.4175 16.8114C18.4019 16.9323 18.4865 17.0928 18.5683 17.1745C18.6159 17.2223 18.6725 17.2602 18.7348 17.286C18.7971 17.3119 18.8639 17.3252 18.9314 17.3252C18.9988 17.3252 19.0656 17.3119 19.1279 17.286C19.1903 17.2602 19.2469 17.2223 19.2945 17.1745L19.3752 17.0708C19.4211 16.992 19.4453 16.9025 19.4452 16.8114H19.4467Z" fill="#FFDA22"/>
<path d="M16.1145 17.4858C16.0797 16.8814 15.7719 16.3475 15.4739 15.8351C15.2105 15.38 14.9235 14.939 14.6141 14.5138C14.4389 14.273 14.2576 14.0373 14.0704 13.8067C13.8775 13.5688 13.6788 13.3055 13.3573 13.2414C13.1404 13.1975 12.9149 13.2322 12.7211 13.3393C12.5934 13.411 12.4792 13.5046 12.384 13.6158C12.2837 13.7277 12.1947 13.8492 12.1182 13.9784C11.9827 14.2163 11.9479 14.4986 12.083 14.7458C12.1374 14.8402 12.2111 14.9222 12.2992 14.9864C12.3872 15.0507 12.4878 15.0957 12.5944 15.1187C12.8182 15.1669 13.052 15.1321 13.2521 15.0208C13.4182 14.9276 13.5541 14.7887 13.6436 14.6205C13.6891 14.5374 13.722 14.448 13.7415 14.3553C13.7662 14.2208 13.7662 14.083 13.7415 13.9486C13.7239 13.8297 13.6045 13.699 13.5056 13.6413C13.3878 13.5727 13.2477 13.5536 13.1159 13.5881C12.984 13.6227 12.8713 13.7082 12.8024 13.8257L12.7505 13.9486C12.726 14.038 12.726 14.1323 12.7505 14.2217L12.7534 14.2383L12.7309 14.1037C12.7358 14.1425 12.7358 14.1818 12.7309 14.2207L12.7495 14.0841C12.7427 14.1225 12.7318 14.1601 12.7172 14.1962L12.7691 14.0734C12.7509 14.1144 12.7279 14.1532 12.7006 14.1889L12.7813 14.0851C12.7524 14.12 12.7195 14.1516 12.6835 14.1791L12.7872 14.0988C12.7556 14.1217 12.7216 14.1412 12.6859 14.1571L12.8107 14.1037C12.7743 14.1179 12.7364 14.1278 12.6976 14.1331L12.8342 14.115C12.8076 14.1174 12.7809 14.1174 12.7544 14.115L12.8909 14.1331C12.8593 14.129 12.8282 14.1211 12.7985 14.1096L12.9208 14.1615C12.8969 14.151 12.8742 14.1382 12.8528 14.1233L12.9575 14.204C12.9417 14.1916 12.9271 14.1776 12.9139 14.1624L12.9942 14.2662C12.9824 14.2511 12.9724 14.2346 12.9644 14.2173L13.0162 14.3401C13.011 14.3258 13.0072 14.3111 13.005 14.296L13.0231 14.4326C13.0214 14.4129 13.0214 14.3931 13.0231 14.3734L13.0064 14.5079C13.0117 14.4818 13.0196 14.4562 13.0299 14.4316L12.9781 14.5539C13.0218 14.467 13.0748 14.3849 13.1361 14.3093L13.0554 14.4115C13.1124 14.3359 13.1781 14.2673 13.2511 14.207L13.1484 14.2872C13.1902 14.2549 13.2359 14.2277 13.2844 14.2065L13.1621 14.2584C13.1937 14.2461 13.2265 14.2371 13.2599 14.2314L13.1214 14.2505C13.1539 14.2463 13.1868 14.2463 13.2193 14.2505L13.0828 14.2319C13.1122 14.2373 13.1409 14.2458 13.1684 14.2574L13.0456 14.2055C13.0742 14.2191 13.1014 14.2355 13.1268 14.2544L13.0231 14.1742C13.1205 14.2613 13.2086 14.3584 13.2859 14.4639C13.3753 14.5735 13.4634 14.6843 13.5501 14.7962L13.4714 14.691C13.9319 15.2879 14.3471 15.9185 14.7134 16.5775C14.8176 16.7655 14.9214 16.9544 15.007 17.1521L14.9552 17.0292C15.0228 17.1838 15.07 17.3465 15.0956 17.5132L15.077 17.3767C15.0814 17.4129 15.0848 17.4491 15.0873 17.4858C15.0901 17.6216 15.1437 17.7513 15.2375 17.8494C15.3095 17.9212 15.4011 17.97 15.5007 17.9897C15.6004 18.0094 15.7037 17.9992 15.7975 17.9603C15.8914 17.9214 15.9716 17.8556 16.0281 17.7712C16.0846 17.6867 16.1149 17.5874 16.115 17.4858H16.1145Z" fill="#FFDA22"/>
</svg>
